# xmcd
#
# Track frame offsets: 
#        150
#        14626
#        29406
#        46111
#        59488
#        72023
#        86640
#        103172
#        116208
#        132037
#        141679
#        158598
#        175636
#        194241
#        210141
#        225805
#        244024
#        258429
#        270168
#        284058
#        300012
#        317129
#
# Disc length: 4427 seconds
#
# Revision: 0
# Processed by: cddbd v1.5.2PL0 Copyright (c) Steve Scherf et al.
# Submitted via: ExactAudioCopy v1.3
#
DISCID=32114916
DTITLE=Various Artist - The Very Best Of Country Music Channel 2011
DYEAR=2011
DGENRE=Country
TTITLE0=Kasey Chambers - Beautiful Mess
TTITLE1=Adam Harvey - You Don't Know My Love
TTITLE2=The McClymonts - A Woman is a Flame
TTITLE3=Adam Brand - It's Gonna Be Ok
TTITLE4=Catherine Britt - I want you Back
TTITLE5=Troy Cassar-Daley - Chasin Rodeo
TTITLE6=The Sunny Cowgirls - Naughty Side
TTITLE7=Steve Forde - How Long
TTITLE8=Dianna Corcoran - Keep Breathing
TTITLE9=Shane Nicholson - Famous Last Words
TTITLE10=O'shea - Smash
TTITLE11=McAlister Kemp - Hell Yeah
TTITLE12=Sara Storer - Tears
TTITLE13=Markus Meier - A Perfect Night
TTITLE14=Jasmine Rae - Hunky Country Boys
TTITLE15=Amber Lawrence - Always Kiss Me Goodnight
TTITLE16=Peter McWhirter - I Will Stand By You
TTITLE17=Jayne Denham - A Farmers Wife
TTITLE18=Courtney Conway - Girly Girl
TTITLE19=Doug Bruce - Coffey Road
TTITLE20=Katrina Burgoyne - I Want't Gonna Cry
TTITLE21=Tori Darke - Someone Else's Baby
EXTD=
EXTT0=
EXTT1=
EXTT2=
EXTT3=
EXTT4=
EXTT5=
EXTT6=
EXTT7=
EXTT8=
EXTT9=
EXTT10=
EXTT11=
EXTT12=
EXTT13=
EXTT14=
EXTT15=
EXTT16=
EXTT17=
EXTT18=
EXTT19=
EXTT20=
EXTT21=
PLAYORDER=
